<svg xmlns="http://www.w3.org/2000/svg" viewBox="0 0 343.66 59.34"><defs><style>.cls-2,.cls-3{fill:#6e7272;fill-rule:evenodd}.cls-3{fill:#5fb744}</style></defs><g id="_ÎÓÈ_1" data-name="—ÎÓÈ_1"><path fill="#6e7272" d="M121.13.16h2.9v30.53h-2.9z"/><path class="cls-2" d="M157.92 30.64V6.87l-9.53 15.9h-2.03l-9.4-15.9v23.78h-2.94V.16h2.4l11.02 18.47L158.46.15h2.31l.01 30.49h-2.86z"/><path class="cls-2" d="M318.35 339.26v.74c0 4.43-3 8-7.42 8h-5a8.14 8.14 0 0 1-8-6.5H301a5.14 5.14 0 0 0 4.93 3.65h5c2.9 0 4.52-2.4 4.52-5.26v-.54c0-7-17.53-2.65-17.53-13.42v-.28a8.17 8.17 0 0 1 7.68-8.2h3.71a8.07 8.07 0 0 1 7.5 6.58h-3.15a4.85 4.85 0 0 0-4.84-3.69h-2.74a5.24 5.24 0 0 0-5.22 5.31v.28c0 8.2 17.49 3.07 17.49 13.33zM342.08 326h3.07l-10.69 26.93a6.87 6.87 0 0 1-7 4.6v-2.78c2.73 0 3.64-1.24 4.47-3l1.58-3.81c-2.66-6.5-6-15.54-8.62-21.95H328l7 17.95 2.27-5.14zM359.81 335.94c3.48.75 7.29 1.66 7.29 5.64v.49c0 3.28-2.19 5.93-5.47 5.93h-4.3a6.3 6.3 0 0 1-6-5.18h2.77a3.48 3.48 0 0 0 3.24 2.53h4.3c1.78 0 2.82-1.49 2.82-3.36v-.33c0-1.91-2.57-2.53-5.26-3.15-3.61-.87-7.79-1.95-7.79-6.25v-.17a6 6 0 0 1 6-6h2.73a6.14 6.14 0 0 1 5.93 5.22h-2.78a3.25 3.25 0 0 0-3.15-2.57h-2.73a3.32 3.32 0 0 0-3.32 3.4v.17c0 2.35 2.91 2.97 5.72 3.63zM375.05 326v-6.13h2.81V326h5.59v2.61h-5.59v13c0 3 2.32 3.65 5.34 3.65v2.82c-4.55 0-8.16-1.58-8.16-6V326zM394.73 336.6h12.67V334a5.13 5.13 0 0 0-5.09-5.14h-2.45a5.11 5.11 0 0 0-5.13 5.14v2.65zm14.5 9.11a8.37 8.37 0 0 1-5.68 2.36h-3.68a8 8 0 0 1-8-7.92V334a8 8 0 0 1 7.95-8h2.45a7.89 7.89 0 0 1 7.87 8v5.47h-15.41v.74a5.1 5.1 0 0 0 5.13 5.1h3.69a5.69 5.69 0 0 0 3.61-1.33zM450.07 333.94v14.13h-2.77v-14.13a5.13 5.13 0 0 0-5.1-5.13h-3.36c-1.2 0-2.48 1.16-3.52 2.32a7.1 7.1 0 0 1 .54 2.81v14.13h-2.81v-14.13a5.16 5.16 0 0 0-4.56-5.09h-3.86a5.28 5.28 0 0 0-3.64 2v17.19h-2.86v-21.59h2.44l.42 1.24a6.57 6.57 0 0 1 4.06-1.66h3.44a8 8 0 0 1 5.3 2.57c1.37-1.37 3-2.61 5-2.61h3.36a7.77 7.77 0 0 1 5.55 2.36 7.67 7.67 0 0 1 2.37 5.59zM465.85 335.93c3.45.74 7.23 1.64 7.29 5.53v.73c-.06 3.22-2.23 5.8-5.46 5.8h-4.31a6.3 6.3 0 0 1-6-5.18h2.78a3.46 3.46 0 0 0 3.23 2.52h4.31c1.78 0 2.81-1.49 2.81-3.35v-.34c0-1.9-2.56-2.52-5.26-3.14-3.6-.87-7.79-1.95-7.79-6.26v-.16a6 6 0 0 1 6-6.05h2.73a6.11 6.11 0 0 1 5.93 5.22h-2.78a3.24 3.24 0 0 0-3.15-2.57h-2.73a3.3 3.3 0 0 0-3.31 3.4v.16c0 2.41 2.86 3.03 5.71 3.69zM254.42 367.14h5.15c-.94-2.35-1.59-3.82-2.59-6.33l-2.56 6.33zm-2.32 5.66h-1.48l5.89-14.42h1l5.92 14.42h-1.47l-1.8-4.31h-6.25zM273.73 362.24a2.53 2.53 0 0 0-2.49-2.51h-2.68a2.51 2.51 0 0 0-2.48 2.51V369a2.48 2.48 0 0 0 2.47 2.49h2.68a2.51 2.51 0 0 0 2.49-2.49v-6.74zm.21-2.74a3.78 3.78 0 0 1 1.16 2.74V369a3.86 3.86 0 0 1-3.86 3.84h-2.68a3.88 3.88 0 0 1-3.87-3.84v-6.74a3.87 3.87 0 0 1 3.87-3.88h2.68a3.72 3.72 0 0 1 2.76 1.12z" transform="translate(-129.48 -317.44)"/><path class="cls-2" d="M158.03 40.94h1.38l.01 11.26 7.44-11.27H168v14.45h-1.37V44.13l-7.43 11.25h-1.17V40.94zM179.86 44.89v10.49h-1.35v-4.3h-5.49v4.3h-1.33V44.89h1.33v4.86h5.49v-4.86h1.35z"/><path class="cls-2" d="M327.8 366.12v6.68h-1.31v-6.68a2.42 2.42 0 0 0-2.41-2.43h-1.2a2.69 2.69 0 0 0-1.66 1.09 3.58 3.58 0 0 1 .25 1.34v6.68h-1.33v-6.68a2.44 2.44 0 0 0-2.14-2.42h-1.43a2.54 2.54 0 0 0-1.73 1v8.14h-1.35v-10.47h1.15l.2.79a3 3 0 0 1 1.92-.79H318a3.74 3.74 0 0 1 2.5 1.22 3.51 3.51 0 0 1 2.39-1.24h1.2a3.79 3.79 0 0 1 3.72 3.77zM332.06 367.37h6v-1.26a2.44 2.44 0 0 0-2.42-2.43h-1.15a2.42 2.42 0 0 0-2.43 2.44v1.25zm6.94 3.92a3.66 3.66 0 0 1-3 1.51h-1.55a3.76 3.76 0 0 1-3.76-3.75v-2.93a3.76 3.76 0 0 1 3.76-3.77h1.15a3.74 3.74 0 0 1 3.73 3.76v2.59h-7.31v.35a2.41 2.41 0 0 0 2.43 2.41H336a2.51 2.51 0 0 0 1.92-1z" transform="translate(-129.48 -317.44)"/><path class="cls-2" d="M216.57 46.69l-3.31 8.66h-1.43l4.08-10.45h1.33l4.09 10.45h-1.45l-3.31-8.66zM235.31 55.35h-1.34v-7.12l-3.48 7.1h-.98l-3.47-7.06v7.08h-1.33V44.9h1.11l4.2 8.31 4.17-8.31h1.12v10.45z"/><path class="cls-2" d="M369.34 367.36h6v-1.25a2.44 2.44 0 0 0-2.42-2.43h-1.15a2.42 2.42 0 0 0-2.43 2.43v1.25zm6.94 3.92a3.63 3.63 0 0 1-3 1.51h-1.55a3.75 3.75 0 0 1-3.76-3.74v-2.94a3.76 3.76 0 0 1 3.76-3.76h1.15a3.73 3.73 0 0 1 3.73 3.76v2.58h-7.31v.36a2.42 2.42 0 0 0 2.43 2.41h1.55a2.55 2.55 0 0 0 1.92-1zM380.75 369.05a2.42 2.42 0 0 0 2.43 2.41h1.37a2.29 2.29 0 0 0 1.72-.94v-5.8a2.61 2.61 0 0 0-1.72-1h-1.37a2.41 2.41 0 0 0-2.43 2.43v2.92zm3.15 7.74c-1 0-3.52-.4-3.52-.4l.27-1.31s2.41.36 3.21.36a2.33 2.33 0 0 0 2.41-2.41v-1.14a3.75 3.75 0 0 1-1.76.9h-1.33a3.76 3.76 0 0 1-3.77-3.74v-2.92a3.77 3.77 0 0 1 3.77-3.77h1.17a3.75 3.75 0 0 1 1.92 1l.2-.63h1.15V373a3.75 3.75 0 0 1-3.72 3.79z" transform="translate(-129.48 -317.44)"/><path class="cls-2" d="M29.88 30.62L54.84.21l14.98.02L94.84 30.7l-31.31-.07-16.97 20.1-16.68-20.11z"/><path class="cls-3" d="M41.08 9.94l3.62-4.4L40.56.5 25.15.48l-7.83 9.46h23.76zM15.42 12.24L0 30.89l23.82.03 15.37-18.68H15.42z"/></g></svg>